<svg width="246" height="232" xmlns="http://www.w3.org/2000/svg" xmlns:xlink="http://www.w3.org/1999/xlink" overflow="hidden"><defs><clipPath id="clip0"><rect x="3207" y="1215" width="246" height="232"/></clipPath><clipPath id="clip1"><rect x="3263" y="1215" width="169" height="167"/></clipPath><clipPath id="clip2"><rect x="3263" y="1215" width="169" height="167"/></clipPath><clipPath id="clip3"><rect x="3263" y="1215" width="169" height="167"/></clipPath></defs><g clip-path="url(#clip0)" transform="translate(-3207 -1215)"><g clip-path="url(#clip1)"><g clip-path="url(#clip2)"><g clip-path="url(#clip3)"><path d="M83.4999 50.7957C61.5811 7.30624 24.3541 33.3999 24.3541 57.7541 24.3541 94.2853 83.4999 139.514 83.4999 139.514 83.4999 139.514 142.646 94.2853 142.646 57.7541 142.646 33.3999 105.419 7.30624 83.4999 50.7957Z" transform="matrix(1.00599 0 0 1 3264 1215)"/></g></g></g><path d="M3453 1354.24C3453 1348.06 3447.97 1343 3441.82 1343 3439.58 1343 3437.62 1343.56 3435.95 1344.69L3388.15 1372.23C3388.7 1375.32 3388.7 1378.42 3388.15 1381.79 3385.91 1392.19 3376.12 1399.22 3365.5 1399.22L3316.02 1399.22 3316.02 1387.97 3366.34 1387.97C3372.49 1387.97 3377.52 1382.91 3377.52 1376.73 3377.52 1370.55 3372.49 1365.49 3366.34 1365.49 3366.34 1365.49 3299.81 1365.49 3299.25 1365.49 3294.5 1365.49 3290.02 1366.89 3286.11 1369.14L3207 1407.65 3246.14 1447C3264.31 1428.73 3287.79 1421.7 3313.23 1421.7L3365.5 1421.7C3368.02 1421.7 3370.25 1420.86 3372.21 1419.45L3449.09 1362.96C3451.32 1360.71 3453 1357.62 3453 1354.24Z" fill-rule="evenodd"/></g></svg>