<svg width="542" height="469" xmlns="http://www.w3.org/2000/svg" xmlns:xlink="http://www.w3.org/1999/xlink" overflow="hidden"><defs><clipPath id="clip0"><rect x="1852" y="780" width="542" height="469"/></clipPath></defs><g clip-path="url(#clip0)" transform="translate(-1852 -780)"><path d="M2052 873C2107.23 873 2157.23 894.043 2193.42 928.064L2196.94 932.069 2143.86 969.783C2134.98 976.089 2133.22 987.965 2139.93 996.308 2146.64 1004.65 2159.27 1006.3 2168.15 999.997L2221.74 961.92 2227.86 971.388C2243.26 998.026 2252 1028.55 2252 1061 2252 1164.83 2162.46 1249 2052 1249 1941.54 1249 1852 1164.83 1852 1061 1852 957.17 1941.54 873 2052 873Z" fill="#0D0D0D" fill-rule="evenodd"/><path d="M1867 1058.5C1867 963.231 1949.16 886 2050.5 886 2151.84 886 2234 963.231 2234 1058.5 2234 1153.77 2151.84 1231 2050.5 1231 1949.16 1231 1867 1153.77 1867 1058.5Z" fill="#FFFFFF" fill-rule="evenodd"/><path d="M2052.5 912C2085.33 912 2115.82 921.35 2141.12 937.362L2161.77 953.323 2131.08 975.053C2122.18 981.357 2120.42 993.229 2127.15 1001.57L2127.15 1001.57C2133.87 1009.91 2146.55 1011.56 2155.45 1005.26L2187.06 982.871 2198.54 1002.7C2206.56 1020.46 2211 1040 2211 1060.5 2211 1142.51 2140.04 1209 2052.5 1209 1964.96 1209 1894 1142.51 1894 1060.5 1894 978.486 1964.96 912 2052.5 912Z" fill="#0D0D0D" fill-rule="evenodd"/><path d="M1919 1059.5C1919 990.188 1978.99 934 2053 934 2127.01 934 2187 990.188 2187 1059.5 2187 1128.81 2127.01 1185 2053 1185 1978.99 1185 1919 1128.81 1919 1059.5Z" fill="#FFFFFF" fill-rule="evenodd"/><path d="M1975 1058.5C1975 1017.35 2010.59 984 2054.5 984 2098.41 984 2134 1017.35 2134 1058.5 2134 1099.65 2098.41 1133 2054.5 1133 2010.59 1133 1975 1099.65 1975 1058.5Z" fill="#0D0D0D" fill-rule="evenodd"/><path d="M2155.28 1043.93 2055.27 1059.96 2094.21 966.455Z" fill="#0D0D0D" fill-rule="evenodd"/><path d="M2135.87 1037.34 2073.48 1047.34 2097.78 989.009Z" fill="#FFFFFF" fill-rule="evenodd"/><path d="M2333.05 831.23 2344.53 845.802 2115.56 1026.28 2104.07 1011.71Z" fill="#0D0D0D" fill-rule="evenodd"/><path d="M2359.37 866.298 2356.34 883.296 2301.18 873.46 2304.21 856.461Z" fill="#0D0D0D" fill-rule="evenodd"/><path d="M2303.26 807.804 2319.72 810.013 2311.96 867.775 2295.51 865.565Z" fill="#0D0D0D" fill-rule="evenodd"/><path d="M2326.62 892.107 2323.59 909.105 2268.43 899.269 2271.47 882.271Z" fill="#0D0D0D" fill-rule="evenodd"/><path d="M2270.52 833.613 2286.97 835.823 2279.21 893.585 2262.76 891.375Z" fill="#0D0D0D" fill-rule="evenodd"/><path d="M2393.58 841.336 2390.55 858.334 2335.39 848.498 2338.42 831.5Z" fill="#0D0D0D" fill-rule="evenodd"/><path d="M2337.28 780.995 2353.73 783.205 2345.97 840.966 2329.52 838.757Z" fill="#0D0D0D" fill-rule="evenodd"/><path d="M2344.24 878.217 2341.21 895.215 2286.06 885.379 2289.09 868.381Z" fill="#0D0D0D" fill-rule="evenodd"/><path d="M2288.14 819.723 2304.59 821.932 2296.83 879.694 2280.38 877.485Z" fill="#0D0D0D" fill-rule="evenodd"/><path d="M2376.19 855.042 2373.16 872.04 2318 862.204 2321.03 845.206Z" fill="#0D0D0D" fill-rule="evenodd"/><path d="M2320.08 796.548 2336.53 798.758 2328.78 856.52 2312.33 854.31Z" fill="#0D0D0D" fill-rule="evenodd"/></g></svg>