<svg width="96" height="96" xmlns="http://www.w3.org/2000/svg" xmlns:xlink="http://www.w3.org/1999/xlink" overflow="hidden"><defs><clipPath id="clip0"><rect x="240" y="312" width="96" height="96"/></clipPath></defs><g clip-path="url(#clip0)" transform="translate(-240 -312)"><path d="M284.9 384.4C284.4 384.4 283.8 384.3 283.4 383.9 282.6 383.2 282.5 381.9 283.2 381.1L287.1 376.6C287.8 375.8 289.1 375.7 289.9 376.4 290.7 377.1 290.8 378.4 290.1 379.2L286.2 383.7C285.9 384.1 285.4 384.3 284.9 384.4Z"/><path d="M278.8 382.1C278.1 382.2 277.5 382 276.9 381.5 275.9 380.6 275.8 379 276.7 378L281.3 372.7C282.2 371.7 283.8 371.6 284.8 372.5 285.8 373.4 285.9 375 285 376L280.4 381.3C280 381.8 279.4 382.1 278.8 382.1Z"/><path d="M272.5 378.4C271.7 378.5 270.9 378.2 270.3 377.7 269.1 376.6 268.9 374.7 270 373.5L274.6 368.2C275.7 367 277.6 366.8 278.8 367.9 280 369 280.2 370.9 279.1 372.1L274.5 377.4C274 378 273.2 378.4 272.5 378.4Z"/><path d="M265.2 374.7C264.4 374.8 263.6 374.5 263 374 261.8 372.9 261.6 371 262.7 369.8L268 363.8C269.1 362.6 271 362.4 272.2 363.5 273.4 364.6 273.6 366.5 272.5 367.7L267.2 373.7C266.6 374.3 265.9 374.6 265.2 374.7Z"/><path d="M244.6 352.7 252.3 357.4C253.2 358 254.5 357.7 255 356.7L264.3 341.3C264.9 340.4 264.6 339.1 263.6 338.6L256 333.9 244.6 352.7Z"/><path d="M309.4 365.8 293.3 352 292.2 351 285.3 358.9C284.3 360.1 282.9 360.8 281.3 360.9 281.1 360.9 280.9 360.9 280.8 360.9 279.3 360.9 277.9 360.4 276.9 359.4 274.4 357.2 274.2 353.4 276.3 350.9L282.2 344.1C277.6 343.5 271.7 345.9 265.6 342.9L256.9 357.3 263.7 365.2 266.3 362.2C267.2 361.1 268.6 360.5 270.1 360.5L270.1 360.5C271.3 360.5 272.5 360.9 273.4 361.7 274.5 362.6 275 363.9 275.1 365.3 275.6 365.1 276.2 365 276.8 365 278 365 279.2 365.4 280.1 366.2 281.2 367.2 281.8 368.5 281.8 369.9 282.2 369.8 282.7 369.7 283.1 369.7L283.1 369.7C284.2 369.7 285.2 370.1 286.1 370.8 287 371.6 287.5 372.7 287.6 373.9 287.9 373.8 288.3 373.7 288.7 373.7L288.7 373.7C289.7 373.7 290.6 374 291.3 374.7 292.1 375.4 292.6 376.4 292.7 377.4 292.8 378.5 292.4 379.5 291.7 380.3L288.3 384.2 289.7 385.3C290.4 385.7 291.2 386 292.1 385.9 294.3 385.7 295.9 383.8 295.7 381.6 295.7 381.6 295.7 381.5 295.7 381.5 296 381.6 296.4 381.6 296.7 381.6 298.9 381.4 300.5 379.5 300.3 377.3 300.3 377.3 300.3 377.2 300.3 377.2 300.6 377.3 301 377.3 301.3 377.3 303.5 377.1 305.1 375.2 304.9 373 304.9 372.8 304.8 372.6 304.8 372.4 305.4 372.7 306.1 372.9 306.9 372.8 309.1 372.6 310.7 370.7 310.5 368.5 310.6 367.4 310.1 366.5 309.4 365.8Z"/><path d="M331.4 352.7 323.7 357.4C322.8 358 321.5 357.7 321 356.7L311.7 341.3C311.1 340.4 311.4 339.1 312.4 338.6L320.1 333.9 331.4 352.7Z"/><path d="M310.5 343.3C302.2 346.3 296.2 343.4 289.5 342.1 289.4 342.1 289 342 289 342 287.8 341.9 286.5 342.3 285.6 343.3L277.7 352.3C276.2 354 276.4 356.5 278.1 357.9 279 358.6 280 359 281.1 358.9 282.1 358.8 283.1 358.4 283.8 357.5 283.8 357.5 292 348.1 292 348.1L310.7 364.2 310.7 364.2 310.7 364.2C311.2 364.7 311.4 364.9 311.8 365.5L319 357.2 310.5 343.3Z"/></g></svg>