<svg width="96" height="96" xmlns="http://www.w3.org/2000/svg" xmlns:xlink="http://www.w3.org/1999/xlink" overflow="hidden"><defs><clipPath id="clip0"><rect x="441" y="312" width="96" height="96"/></clipPath></defs><g clip-path="url(#clip0)" transform="translate(-441 -312)"><path d="M502.9 374.4C510.7 366.9 511.1 354.5 503.7 346.5 511.6 350.6 518.1 356.9 521.9 361.1 517.9 365 511.1 370.8 502.9 374.4ZM463.6 353.8C466.9 351 470.4 348.6 474.2 346.6 466.9 354.6 467.3 366.9 475.1 374.4 466.9 370.8 460 365 456.1 361.1 458.4 358.5 460.9 356.1 463.6 353.8L463.6 353.8ZM489 376C480.2 376 473 368.8 473 360 473 351.2 480.2 344 489 344 497.8 344 505 351.2 505 360 505 368.8 497.8 376 489 376ZM527.9 358.3C522.1 351.5 506.9 336 489 336 471.1 336 455.9 351.5 450.1 358.3 448.6 360.1 448.7 362.6 450.3 364.3 456.2 370.5 471.3 384 489 384 506.7 384 521.8 370.5 527.8 364.3 529.3 362.7 529.4 360.1 527.9 358.3Z"/><path d="M499 360C499 365.523 494.523 370 489 370 483.477 370 479 365.523 479 360 479 354.477 483.477 350 489 350 494.523 350 499 354.477 499 360Z"/></g></svg>