<svg width="1280" height="720" xmlns="http://www.w3.org/2000/svg" xmlns:xlink="http://www.w3.org/1999/xlink" overflow="hidden"><defs><clipPath id="clip0"><rect x="0" y="0" width="1280" height="720"/></clipPath><linearGradient x1="947.656" y1="-186.944" x2="332.344" y2="906.944" gradientUnits="userSpaceOnUse" spreadMethod="reflect" id="fill1"><stop offset="0" stop-color="#00B0F0"/><stop offset="0.01" stop-color="#00B0F0"/><stop offset="0.55" stop-color="#171BAD"/><stop offset="1" stop-color="#171BAD"/></linearGradient><radialGradient cx="5.08167e+06" cy="4.33745e+06" r="6.68108e+06" fx="5.08167e+06" fy="4.33745e+06" gradientUnits="userSpaceOnUse" spreadMethod="pad" id="fill2" gradientTransform="matrix(3.60189e-05 9.86148e-05 -9.86148e-05 3.60189e-05 271.505 -35.5978)"><stop offset="0" stop-color="#161AA6"/><stop offset="0.42" stop-color="#161AA6"/><stop offset="0.58" stop-color="#0F47BC"/><stop offset="0.86" stop-color="#00B0F0"/><stop offset="1" stop-color="#00B0F0"/></radialGradient><radialGradient cx="3.13252e+06" cy="3.05741e+06" r="4.37726e+06" fx="3.13252e+06" fy="3.05741e+06" gradientUnits="userSpaceOnUse" spreadMethod="pad" id="fill3" gradientTransform="matrix(7.88847e-05 6.9278e-05 -6.9278e-05 7.88847e-05 1093.71 433.737)"><stop offset="0" stop-color="#161AA6"/><stop offset="0.42" stop-color="#161AA6"/><stop offset="0.58" stop-color="#0F47BC"/><stop offset="0.8" stop-color="#00B0F0"/><stop offset="1" stop-color="#00B0F0"/></radialGradient><radialGradient cx="1.55078e+06" cy="1.55078e+06" r="2.19313e+06" gradientUnits="userSpaceOnUse" spreadMethod="pad" id="fill4" gradientTransform="matrix(2.01703e-05 0.000103031 -0.000103031 2.01703e-05 1015.94 95.2048)"><stop offset="0" stop-color="#161AA6"/><stop offset="0.42" stop-color="#161AA6"/><stop offset="0.58" stop-color="#0F47BC"/><stop offset="0.8" stop-color="#00B0F0"/><stop offset="1" stop-color="#00B0F0"/></radialGradient></defs><g clip-path="url(#clip0)"><rect x="0" y="0" width="1280" height="720" fill="url(#fill1)"/><path d="M99.5656 39.9704C213.149 34.4406 321.956 102.53 363.023 214.966 413.567 353.349 342.36 506.504 203.977 557.048 143.435 579.161 80.0647 577.97 23.6969 558.045L3.05176e-05 548.374-3.05176e-05 64.79 20.9411 55.9202C46.8878 46.4432 73.3539 41.2465 99.5656 39.9704Z" fill="url(#fill2)" fill-rule="evenodd"/><path d="M1115.8 507.842C1156.12 509.08 1196.27 523.811 1228.95 552.509 1252.29 573.008 1269.06 598.207 1279.08 625.446L1280 628.384 1280 720 933.227 720 932.5 716.56C924.228 665.358 938.037 610.993 974.935 568.979 1011.83 526.965 1063.96 506.251 1115.8 507.842Z" fill="url(#fill3)" fill-rule="evenodd"/><path d="M936.052 110.845C980.174 102.207 1022.94 130.972 1031.58 175.094 1040.22 219.215 1011.45 261.985 967.332 270.623 923.211 279.26 880.441 250.495 871.803 206.373 863.166 162.252 891.931 119.482 936.052 110.845Z" fill="url(#fill4)" fill-rule="evenodd"/></g></svg>