<svg width="96" height="96" xmlns="http://www.w3.org/2000/svg" xmlns:xlink="http://www.w3.org/1999/xlink" overflow="hidden"><defs><clipPath id="clip0"><rect x="360" y="385" width="96" height="96"/></clipPath></defs><g clip-path="url(#clip0)" transform="translate(-360 -385)"><path d="M441 423.34C440.638 421.162 438.579 419.689 436.4 420.05L427.65 421.51C427.65 421.51 424 411.82 424 411.73 422.14 406 414.16 406 408 406 401.84 406 393.91 406 392.09 411.73 392.09 411.82 388.41 421.51 388.41 421.51L379.66 420.05C377.485 419.665 375.409 421.117 375.025 423.292 374.64 425.468 376.091 427.543 378.267 427.928 378.291 427.932 378.316 427.936 378.34 427.94L390.34 429.94C390.558 429.98 390.779 430 391 430 392.67 430.001 394.165 428.965 394.75 427.4L397.21 420.81 398 421.16 398 478 406 478 406 442 410 442 410 478 418 478 418 421.17C418.29 421.05 418.57 420.93 418.84 420.8L421.31 427.4C421.893 428.961 423.383 429.997 425.05 430 425.271 430 425.492 429.98 425.71 429.94L437.71 427.94C439.888 427.578 441.361 425.519 441 423.34Z" fill="#FFFFFF"/><path d="M416 396C416 400.418 412.418 404 408 404 403.582 404 400 400.418 400 396 400 391.582 403.582 388 408 388 412.418 388 416 391.582 416 396Z" fill="#FFFFFF"/></g></svg>