<svg width="96" height="96" xmlns="http://www.w3.org/2000/svg" xmlns:xlink="http://www.w3.org/1999/xlink" overflow="hidden"><defs><clipPath id="clip0"><rect x="96" y="383" width="96" height="96"/></clipPath></defs><g clip-path="url(#clip0)" transform="translate(-96 -383)"><path d="M144 404.8 158.4 419.3 161.2 416.5 144 400 126.4 416.8 129.2 419.6Z" fill="#FFFFFF"/><path d="M176 440.9 168 440.9 168 432.9 176 432.9 176 440.9ZM176 452.9 168 452.9 168 444.9 176 444.9 176 452.9ZM164 440.9 156 440.9 156 432.9 164 432.9 164 440.9ZM164 452.9 156 452.9 156 444.9 164 444.9 164 452.9ZM151 440.9 137 440.9 137 436.9 151 436.9 151 440.9ZM144 421.9C145.7 421.9 147 423.2 147 424.9 147 426.6 145.7 427.9 144 427.9 142.3 427.9 141 426.6 141 424.9 141 423.2 142.3 421.9 144 421.9ZM132 440.9 124 440.9 124 432.9 132 432.9 132 440.9ZM132 452.9 124 452.9 124 444.9 132 444.9 132 452.9ZM120 440.9 112 440.9 112 432.9 120 432.9 120 440.9ZM120 452.9 112 452.9 112 444.9 120 444.9 120 452.9ZM156 427.9 156 421.9 144 409.9 132 421.9 132 427.9 108 427.9 108 461.9 137 461.9 137 450.9C137 448.1 139 444.9 144 444.9 149 444.9 151 448.1 151 450.9L151 461.9 180 461.9 180 427.9 156 427.9Z" fill="#FFFFFF"/></g></svg>