<svg width="96" height="96" xmlns="http://www.w3.org/2000/svg" xmlns:xlink="http://www.w3.org/1999/xlink" overflow="hidden"><defs><clipPath id="clip0"><rect x="647" y="382" width="96" height="96"/></clipPath></defs><g clip-path="url(#clip0)" transform="translate(-647 -382)"><path d="M723.8 445.6C719.4 442 713.8 439.6 708.2 438 704.2 436.8 699.8 436 695 436 690.6 436 686.2 436.8 681.8 438 676.2 439.6 670.6 442.4 666.2 445.6 664.2 447.2 663 449.6 663 452L663 468 727 468 727 452C727 449.6 725.8 447.2 723.8 445.6Z"/><path d="M679.4 402.4C680 402.4 680.5 402.2 680.8 401.8L680.8 401.8C684.5 398.2 689.5 396 695 396 706 396 715 405 715 416L715 420.6 703.5 424.4C703 424.2 702.5 424 702 424 700.3 424 699 425.3 699 427 699 428.7 700.3 430 702 430 703.2 430 704.3 429.3 704.8 428.2L720.7 422.9C721.5 422.6 722.1 421.9 722.1 421L722.1 412C722.1 410.9 721.2 410 720.1 410L718.3 410C715.6 399.7 706.2 392 695 392 688.5 392 682.6 394.6 678.2 398.8 677.7 399.2 677.4 399.7 677.4 400.4 677.4 401.5 678.3 402.4 679.4 402.4Z"/><path d="M710.9 417.7C711 417.1 711 416.6 711 416 711 407.2 703.8 400 695 400 686.2 400 679 407.2 679 416 679 424.8 686.2 432 695 432 695.3 432 695.7 432 696 431.9L696 427 696 427C696 426.1 696.2 425.2 696.6 424.3 697.3 422.9 698.5 421.8 700.1 421.3L710.9 417.7Z"/></g></svg>