<svg width="2110" height="1537" xmlns="http://www.w3.org/2000/svg" xmlns:xlink="http://www.w3.org/1999/xlink" overflow="hidden"><defs><clipPath id="clip0"><rect x="1128" y="276" width="2110" height="1537"/></clipPath><clipPath id="clip1"><rect x="1963" y="705" width="451" height="450"/></clipPath><clipPath id="clip2"><rect x="1963" y="705" width="451" height="450"/></clipPath><clipPath id="clip3"><rect x="1963" y="705" width="451" height="450"/></clipPath></defs><g clip-path="url(#clip0)" transform="translate(-1128 -276)"><path d="M1623 657.5C1623 647.835 1630.83 640 1640.5 640L1858.5 640C1868.16 640 1876 647.835 1876 657.5L1876 657.5C1876 667.165 1868.16 675 1858.5 675L1640.5 675C1630.83 675 1623 667.165 1623 657.5Z" fill="#0D0D0D" fill-rule="evenodd"/><path d="M1321 738.5C1321 727.178 1330.18 718 1341.5 718L1777.5 718C1788.82 718 1798 727.178 1798 738.5L1798 738.5C1798 749.822 1788.82 759 1777.5 759L1341.5 759C1330.18 759 1321 749.822 1321 738.5Z" fill="#0D0D0D" fill-rule="evenodd"/><path d="M1632 855C1632 841.193 1643.19 830 1657 830L2084 830C2097.81 830 2109 841.193 2109 855L2109 855C2109 868.807 2097.81 880 2084 880L1657 880C1643.19 880 1632 868.807 1632 855Z" fill="#0D0D0D" fill-rule="evenodd"/><path d="M1761 599C1761 590.716 1767.72 584 1776 584L1985 584C1993.28 584 2000 590.716 2000 599L2000 599C2000 607.284 1993.28 614 1985 614L1776 614C1767.72 614 1761 607.284 1761 599Z" fill="#0D0D0D" fill-rule="evenodd"/><path d="M1230 1042.5C1230 1032.84 1237.83 1025 1247.5 1025L1688.5 1025C1698.17 1025 1706 1032.84 1706 1042.5L1706 1042.5C1706 1052.17 1698.16 1060 1688.5 1060L1247.5 1060C1237.83 1060 1230 1052.17 1230 1042.5Z" fill="#0D0D0D" fill-rule="evenodd"/><path d="M1715 982C1715 974.268 1721.27 968 1729 968L2064 968C2071.73 968 2078 974.268 2078 982L2078 982C2078 989.732 2071.73 996 2064 996L1729 996C1721.27 996 1715 989.732 1715 982Z" fill="#0D0D0D" fill-rule="evenodd"/><path d="M1713 1202 1866.75 587 2509.25 587 2663 1202Z" fill="#0D0D0D" fill-rule="evenodd"/><path d="M1975 660.5C1975 639.237 1992.24 622 2013.5 622 2034.76 622 2052 639.237 2052 660.5 2052 681.763 2034.76 699 2013.5 699 1992.24 699 1975 681.763 1975 660.5Z" fill="#FFFFFF" fill-rule="evenodd"/><path d="M2319 660.5C2319 639.237 2336.24 622 2357.5 622 2378.76 622 2396 639.237 2396 660.5 2396 681.763 2378.76 699 2357.5 699 2336.24 699 2319 681.763 2319 660.5Z" fill="#FFFFFF" fill-rule="evenodd"/><path d="M2183 276C2307.26 276 2408 381.239 2408 511.058 2408 559.74 2393.83 604.966 2369.57 642.481L2359.08 657.146 2364.9 646.236C2380.8 612.93 2389.83 574.762 2389.83 534.193 2389.83 404.374 2297.35 299.135 2183.26 299.135 2069.17 299.135 1976.69 404.374 1976.69 534.193 1976.69 574.762 1985.72 612.93 2001.62 646.236L2008.97 660 1996.43 642.481C1972.17 604.966 1958 559.74 1958 511.058 1958 381.239 2058.74 276 2183 276Z" fill="#0D0D0D" fill-rule="evenodd"/><path d="M1632 1128C1632 1114.19 1643.19 1103 1657 1103L1819 1103C1832.81 1103 1844 1114.19 1844 1128L1844 1128C1844 1141.81 1832.81 1153 1819 1153L1657 1153C1643.19 1153 1632 1141.81 1632 1128Z" fill="#0D0D0D" fill-rule="evenodd"/><path d="M1340 910C1340 901.716 1346.72 895 1355 895L1564 895C1572.28 895 1579 901.716 1579 910L1579 910C1579 918.285 1572.28 925 1564 925L1355 925C1346.72 925 1340 918.284 1340 910Z" fill="#0D0D0D" fill-rule="evenodd"/><g clip-path="url(#clip1)"><g clip-path="url(#clip2)"><g clip-path="url(#clip3)"><path d="M2188 780C2105.03 780 2038 847.031 2038 930 2038 1012.97 2105.03 1080 2188 1080 2270.97 1080 2338 1012.97 2338 930 2338 847.031 2270.97 780 2188 780ZM2188 1108.12C2089.56 1108.12 2009.88 1028.44 2009.88 930 2009.88 831.563 2089.56 751.875 2188 751.875 2286.44 751.875 2366.12 831.563 2366.12 930 2366.12 1028.44 2286.44 1108.12 2188 1108.12Z" fill="#FFFFFF"/><path d="M2281.75 892.5 2225.5 892.5 2225.5 836.25C2225.5 825.938 2217.06 817.5 2206.75 817.5L2169.25 817.5C2158.94 817.5 2150.5 825.938 2150.5 836.25L2150.5 892.5 2094.25 892.5C2083.94 892.5 2075.5 900.938 2075.5 911.25L2075.5 948.75C2075.5 959.063 2083.94 967.5 2094.25 967.5L2150.5 967.5 2150.5 1023.75C2150.5 1034.06 2158.94 1042.5 2169.25 1042.5L2206.75 1042.5C2217.06 1042.5 2225.5 1034.06 2225.5 1023.75L2225.5 967.5 2281.75 967.5C2292.06 967.5 2300.5 959.063 2300.5 948.75L2300.5 911.25C2300.5 900.938 2292.06 892.5 2281.75 892.5Z" fill="#FFFFFF"/></g></g></g><text font-family="Berlin Sans FB Demi,Berlin Sans FB Demi_MSFontService,sans-serif" font-weight="600" font-size="330" transform="matrix(1 0 0 1 1326.8 1543)">MEDITECH</text></g></svg>