<svg width="2933" height="1076" xmlns="http://www.w3.org/2000/svg" xmlns:xlink="http://www.w3.org/1999/xlink" overflow="hidden"><defs><clipPath id="clip0"><rect x="651" y="624" width="2933" height="1076"/></clipPath><clipPath id="clip1"><rect x="651" y="623" width="1078" height="1077"/></clipPath><clipPath id="clip2"><rect x="651" y="623" width="1078" height="1077"/></clipPath><clipPath id="clip3"><rect x="651" y="623" width="1078" height="1077"/></clipPath></defs><g clip-path="url(#clip0)" transform="translate(-651 -624)"><g clip-path="url(#clip1)"><g clip-path="url(#clip2)"><g clip-path="url(#clip3)"><path d="M311.031 432.53C387.37 407.466 470.981 418.696 538 463.016 605.019 418.696 688.63 407.466 764.969 432.53 766.754 421.409 767.69 410.168 767.771 398.905 767.771 272.006 664.898 169.134 538 169.134 411.101 169.134 308.229 272.006 308.229 398.905 308.31 410.168 309.246 421.409 311.031 432.53Z" transform="matrix(1.00093 0 0 1 651 624)"/><path d="M788.842 479.044C766.634 547.811 717.271 604.505 652.213 635.961 654.962 651.351 656.35 666.954 656.36 682.588 656.372 758.337 623.688 830.406 566.693 880.302 601.873 901.286 642.074 912.362 683.036 912.358 809.873 912.408 912.734 809.625 912.783 682.788 912.817 596.984 865.015 518.318 788.842 478.82Z" transform="matrix(1.00093 0 0 1 651 624)"/><path d="M612.76 616.458C599.524 572.501 573.498 533.482 538 504.375 502.502 533.482 476.476 572.501 463.24 616.458 511.649 633.346 564.351 633.346 612.76 616.458Z" transform="matrix(1.00093 0 0 1 651 624)"/><path d="M392.964 912.582C433.926 912.586 474.127 901.51 509.307 880.527 452.312 830.63 419.628 758.561 419.64 682.812 419.65 667.178 421.039 651.575 423.787 636.185 358.729 604.729 309.366 548.035 287.158 479.268 174.557 537.655 130.61 676.266 188.996 788.866 228.493 865.039 307.16 912.84 392.964 912.807Z" transform="matrix(1.00093 0 0 1 651 624)"/><path d="M538 860.8C591.618 817.267 622.748 751.877 622.735 682.812 622.636 671.554 621.737 660.318 620.045 649.187 566.746 666.674 509.254 666.674 455.955 649.187 454.263 660.318 453.364 671.554 453.265 682.812 453.252 751.877 484.382 817.267 538 860.8Z" transform="matrix(1.00093 0 0 1 651 624)"/><path d="M757.795 465.706C694.538 443.787 624.839 450.839 567.254 484.985 603.125 516.476 629.776 557.112 644.367 602.56 698.933 573.917 739.775 524.64 757.795 465.706Z" transform="matrix(1.00093 0 0 1 651 624)"/><path d="M392.964 453.041C367.516 453.098 342.252 457.377 318.205 465.706 336.358 524.739 377.416 574.033 432.193 602.56 446.784 557.112 473.436 516.476 509.307 484.985 474.096 464.087 433.909 453.053 392.964 453.041Z" transform="matrix(1.00093 0 0 1 651 624)"/></g></g></g><text font-family="Bahnschrift,Bahnschrift_MSFontService,sans-serif" font-weight="400" font-size="367" transform="matrix(1 0 0 1 1645.77 1348)">MEDITECH</text></g></svg>