<svg width="395" height="395" xmlns="http://www.w3.org/2000/svg" xmlns:xlink="http://www.w3.org/1999/xlink" overflow="hidden"><defs><clipPath id="clip0"><rect x="2003" y="1063" width="395" height="395"/></clipPath><clipPath id="clip1"><rect x="2035" y="1094" width="330" height="331"/></clipPath><clipPath id="clip2"><rect x="2035" y="1094" width="330" height="331"/></clipPath><clipPath id="clip3"><rect x="2035" y="1094" width="330" height="331"/></clipPath></defs><g clip-path="url(#clip0)" transform="translate(-2003 -1063)"><g clip-path="url(#clip1)"><g clip-path="url(#clip2)"><g clip-path="url(#clip3)"><path d="M2255 1198.12C2255 1228.5 2230.38 1253.12 2200 1253.12 2169.62 1253.12 2145 1228.5 2145 1198.12 2145 1167.75 2169.62 1143.12 2200 1143.12 2230.38 1143.12 2255 1167.75 2255 1198.12Z"/><path d="M2310 1376.87 2310 1321.87C2310 1313.62 2305.88 1305.37 2299 1299.87 2283.88 1287.5 2264.62 1279.25 2245.38 1273.75 2231.62 1269.62 2216.5 1266.87 2200 1266.87 2184.88 1266.87 2169.75 1269.62 2154.62 1273.75 2135.38 1279.25 2116.12 1288.87 2101 1299.87 2094.12 1305.37 2090 1313.62 2090 1321.87L2090 1376.87 2310 1376.87Z"/></g></g></g><path d="M2013.5 1260.5C2013.5 1157.22 2097.22 1073.5 2200.5 1073.5 2303.78 1073.5 2387.5 1157.22 2387.5 1260.5 2387.5 1363.78 2303.78 1447.5 2200.5 1447.5 2097.22 1447.5 2013.5 1363.78 2013.5 1260.5Z" stroke="#0D0D0D" stroke-width="20.625" stroke-miterlimit="8" fill="none" fill-rule="evenodd"/></g></svg>