<svg width="424" height="424" xmlns="http://www.w3.org/2000/svg" xmlns:xlink="http://www.w3.org/1999/xlink" overflow="hidden"><defs><clipPath id="clip0"><rect x="1988" y="1067" width="424" height="424"/></clipPath><clipPath id="clip1"><rect x="2057" y="1134" width="286" height="288"/></clipPath><clipPath id="clip2"><rect x="2057" y="1134" width="286" height="288"/></clipPath><clipPath id="clip3"><rect x="2057" y="1134" width="286" height="288"/></clipPath></defs><g clip-path="url(#clip0)" transform="translate(-1988 -1067)"><path d="M2002 1279C2002 1169.65 2090.65 1081 2200 1081 2309.35 1081 2398 1169.65 2398 1279 2398 1388.35 2309.35 1477 2200 1477 2090.65 1477 2002 1388.35 2002 1279Z" stroke="#0D0D0D" stroke-width="27.5" stroke-miterlimit="8" fill="none" fill-rule="evenodd"/><g clip-path="url(#clip1)"><g clip-path="url(#clip2)"><g clip-path="url(#clip3)"><path d="M92.3542 92.3542 59.5833 92.3542 59.5833 71.5 92.3542 71.5 92.3542 92.3542ZM137.042 71.5 137.042 92.3542 104.271 92.3542 104.271 71.5 137.042 71.5ZM181.729 71.5 181.729 92.3542 148.958 92.3542 148.958 71.5 181.729 71.5ZM226.417 71.5 226.417 92.3542 193.646 92.3542 193.646 71.5 226.417 71.5ZM226.417 125.125 193.646 125.125 193.646 104.271 226.417 104.271 226.417 125.125ZM226.417 150.448 193.646 153.427 193.646 137.042 226.417 137.042 226.417 150.448ZM92.3542 137.042 92.3542 162.365 59.5833 165.344 59.5833 137.042 92.3542 137.042ZM92.3542 125.125 59.5833 125.125 59.5833 104.271 92.3542 104.271 92.3542 125.125ZM137.042 125.125 104.271 125.125 104.271 104.271 137.042 104.271 137.042 125.125ZM148.958 125.125 148.958 104.271 181.729 104.271 181.729 125.125 148.958 125.125ZM137.042 158.492 104.271 161.471 104.271 137.042 137.042 137.042 137.042 158.492ZM148.958 137.042 181.729 137.042 181.729 154.321 148.958 157.3 148.958 137.042ZM244.292 166.833 244.292 53.625 59.5833 53.625 59.5833 50.6458C59.5833 35.75 47.6667 23.8333 32.7708 23.8333 27.7063 23.8333 23.8333 27.7063 23.8333 32.7708 23.8333 37.8354 27.7063 41.7083 32.7708 41.7083 37.8354 41.7083 41.7083 45.5813 41.7083 50.6458L41.7083 199.604C41.7083 214.5 53.625 226.417 68.5208 226.417L77.4583 226.417 208.542 226.417 235.354 226.417C240.419 226.417 244.292 222.544 244.292 217.479 244.292 212.415 240.419 208.542 235.354 208.542L68.5208 208.542C63.4562 208.542 59.5833 204.669 59.5833 199.604L59.5833 183.219 244.292 166.833Z" stroke="#000000" stroke-width="4.59438" transform="matrix(1 0 0 1.0035 2057 1134)"/><path d="M95.3333 244.292C95.3333 254.164 87.3304 262.167 77.4583 262.167 67.5862 262.167 59.5833 254.164 59.5833 244.292 59.5833 234.42 67.5862 226.417 77.4583 226.417 87.3304 226.417 95.3333 234.42 95.3333 244.292Z" stroke="#000000" stroke-width="4.59438" transform="matrix(1 0 0 1.0035 2057 1134)"/><path d="M226.417 244.292C226.417 254.164 218.414 262.167 208.542 262.167 198.67 262.167 190.667 254.164 190.667 244.292 190.667 234.42 198.67 226.417 208.542 226.417 218.414 226.417 226.417 234.42 226.417 244.292Z" stroke="#000000" stroke-width="4.59438" transform="matrix(1 0 0 1.0035 2057 1134)"/></g></g></g></g></svg>