<svg width="1358" height="1357" xmlns="http://www.w3.org/2000/svg" xmlns:xlink="http://www.w3.org/1999/xlink" overflow="hidden"><defs><clipPath id="clip0"><rect x="1521" y="559" width="1358" height="1357"/></clipPath></defs><g clip-path="url(#clip0)" transform="translate(-1521 -559)"><path d="M2386.78 1023.12C2386.78 1127.51 2302.17 1212.12 2197.78 1212.12 2093.38 1212.12 2008.78 1127.51 2008.78 1023.12 2008.78 918.754 2093.38 834.117 2197.78 834.117 2302.17 834.117 2386.78 918.754 2386.78 1023.12Z" stroke="#FFFFFF" stroke-width="3.4375" stroke-miterlimit="8" fill="#FFFFFF" fill-rule="evenodd"/><path d="M2575.78 1638.12 2575.78 1448.62C2575.78 1420.19 2561.62 1391.77 2537.98 1372.82 2486.02 1330.2 2419.84 1301.77 2353.72 1282.82 2306.44 1268.59 2254.48 1259.12 2197.78 1259.12 2145.82 1259.12 2093.83 1268.59 2041.84 1282.82 1975.72 1301.77 1909.54 1334.92 1857.58 1372.82 1833.94 1391.77 1819.78 1420.19 1819.78 1448.62L1819.78 1638.12 2575.78 1638.12Z" stroke="#FFFFFF" stroke-width="3.4375" stroke-miterlimit="8" fill="#FFFFFF" fill-rule="evenodd"/><path d="M1556.78 1237.62C1556.78 882.764 1844.65 595.116 2199.78 595.116 2554.91 595.116 2842.78 882.764 2842.78 1237.62 2842.78 1592.47 2554.91 1880.12 2199.78 1880.12 1844.65 1880.12 1556.78 1592.47 1556.78 1237.62Z" stroke="#FFFFFF" stroke-width="70.8984" stroke-miterlimit="8" fill="none" fill-rule="evenodd"/></g></svg>