<svg width="681" height="1151" xmlns="http://www.w3.org/2000/svg" xmlns:xlink="http://www.w3.org/1999/xlink" overflow="hidden"><defs><clipPath id="clip0"><rect x="574" y="561" width="681" height="1151"/></clipPath><clipPath id="clip1"><rect x="621" y="600" width="587" height="587"/></clipPath><clipPath id="clip2"><rect x="621" y="600" width="587" height="587"/></clipPath><clipPath id="clip3"><rect x="621" y="600" width="587" height="587"/></clipPath></defs><g clip-path="url(#clip0)" transform="translate(-574 -561)"><path d="M654.5 1628.28C654.5 1620.12 661.118 1613.5 669.281 1613.5L1174.72 1613.5C1182.88 1613.5 1189.5 1620.12 1189.5 1628.28L1189.5 1641.72C1189.5 1649.88 1182.88 1656.5 1174.72 1656.5L669.281 1656.5C661.118 1656.5 654.5 1649.88 654.5 1641.72Z" stroke="#000000" stroke-width="20.625" stroke-miterlimit="8" fill="none" fill-rule="evenodd"/><path d="M1147.5 1584.5 694.5 1584.5 785.1 1177.5 1056.9 1177.5Z" stroke="#000000" stroke-width="20.625" stroke-miterlimit="8" fill="none" fill-rule="evenodd"/><path d="M601.5 1680C601.5 1668.13 611.126 1658.5 623 1658.5L1207 1658.5C1218.87 1658.5 1228.5 1668.13 1228.5 1680L1228.5 1680C1228.5 1691.87 1218.87 1701.5 1207 1701.5L623 1701.5C611.126 1701.5 601.5 1691.87 601.5 1680Z" stroke="#000000" stroke-width="20.625" stroke-miterlimit="8" fill="none" fill-rule="evenodd"/><g clip-path="url(#clip1)"><g clip-path="url(#clip2)"><g clip-path="url(#clip3)"><path d="M915 698.667C806.956 698.667 719.667 785.956 719.667 894 719.667 1002.04 806.956 1089.33 915 1089.33 1023.04 1089.33 1110.33 1002.04 1110.33 894 1110.33 785.956 1023.04 698.667 915 698.667ZM915 1125.96C786.812 1125.96 683.042 1022.19 683.042 894 683.042 765.812 786.812 662.042 915 662.042 1043.19 662.042 1146.96 765.812 1146.96 894 1146.96 1022.19 1043.19 1125.96 915 1125.96Z" stroke="#000000" stroke-width="13.7882" fill="#FFFFFF"/><path d="M1037.08 845.167 963.833 845.167 963.833 771.917C963.833 758.487 952.846 747.5 939.417 747.5L890.583 747.5C877.154 747.5 866.167 758.487 866.167 771.917L866.167 845.167 792.917 845.167C779.487 845.167 768.5 856.154 768.5 869.583L768.5 918.417C768.5 931.846 779.487 942.833 792.917 942.833L866.167 942.833 866.167 1016.08C866.167 1029.51 877.154 1040.5 890.583 1040.5L939.417 1040.5C952.846 1040.5 963.833 1029.51 963.833 1016.08L963.833 942.833 1037.08 942.833C1050.51 942.833 1061.5 931.846 1061.5 918.417L1061.5 869.583C1061.5 856.154 1050.51 845.167 1037.08 845.167Z" stroke="#000000" stroke-width="13.7882" fill="#FFFFFF"/></g></g></g><path d="M590.136 641.352 642.756 635.108 669.385 581.77 671.84 641.336 717.29 668.577 664.671 674.82 638.042 728.159 635.586 668.593Z" stroke="#000000" stroke-width="10.3125" stroke-miterlimit="8" fill="none" fill-rule="evenodd"/><path d="M610.463 1181.89 635.276 1135.07 606.574 1082.82 656.95 1114.7 705.215 1092.84 680.402 1139.65 709.104 1191.91 658.728 1160.03Z" stroke="#000000" stroke-width="10.3125" stroke-miterlimit="8" fill="none" fill-rule="evenodd"/><path d="M1161.12 751.209 1187.53 730.049 1183.94 692.143 1205.39 723.599 1239.23 723.01 1212.82 744.169 1216.41 782.075 1194.95 750.62Z" stroke="#000000" stroke-width="10.3125" stroke-miterlimit="8" fill="none" fill-rule="evenodd"/></g></svg>