<svg width="999" height="386" xmlns="http://www.w3.org/2000/svg" xmlns:xlink="http://www.w3.org/1999/xlink" overflow="hidden"><defs><clipPath id="clip0"><rect x="218" y="833" width="999" height="386"/></clipPath></defs><g clip-path="url(#clip0)" transform="translate(-218 -833)"><path d="M225 1026C225 923.275 445.5 840 717.5 840 989.5 840 1210 923.275 1210 1026 1210 1128.72 989.5 1212 717.5 1212 445.5 1212 225 1128.72 225 1026Z" stroke="#0D0D0D" stroke-width="13.75" stroke-miterlimit="8" fill="none" fill-rule="evenodd"/><path d="M556.5 1026C556.5 936.806 628.806 864.5 718 864.5 807.194 864.5 879.5 936.806 879.5 1026 879.5 1115.19 807.194 1187.5 718 1187.5 628.806 1187.5 556.5 1115.19 556.5 1026Z" stroke="#0D0D0D" stroke-width="20.625" stroke-miterlimit="8" fill="none" fill-rule="evenodd"/><path d="M660.5 1032.5C660.5 1002.12 685.124 977.5 715.5 977.5 745.875 977.5 770.5 1002.12 770.5 1032.5 770.5 1062.88 745.875 1087.5 715.5 1087.5 685.124 1087.5 660.5 1062.88 660.5 1032.5Z" stroke="#0D0D0D" stroke-width="20.625" stroke-miterlimit="8" fill="#262626" fill-rule="evenodd"/></g></svg>